<svg xmlns="http://www.w3.org/2000/svg" viewBox="0 0 32 32" width="32" height="32">
  <defs>
    <linearGradient id="grad1" x1="0%" y1="0%" x2="100%" y2="100%">
      <stop offset="0%" style="stop-color:#dc3545;stop-opacity:1" />
      <stop offset="100%" style="stop-color:#6c757d;stop-opacity:1" />
    </linearGradient>
  </defs>
  
  <!-- Fond circulaire -->
  <circle cx="16" cy="16" r="15" fill="url(#grad1)" stroke="#fff" stroke-width="1"/>
  
  <!-- Lettre C stylisée -->
  <path d="M 12 8 Q 8 8 8 12 L 8 20 Q 8 24 12 24 L 20 24 Q 24 24 24 20 L 24 18 L 20 18 L 20 20 Q 20 20 20 20 L 12 20 Q 12 20 12 20 L 12 12 Q 12 12 12 12 L 20 12 Q 20 12 20 12 L 20 14 L 24 14 L 24 12 Q 24 8 20 8 Z" fill="#fff"/>
  
  <!-- Point d'accent -->
  <circle cx="22" cy="10" r="1.5" fill="#fff"/>
</svg> 